<?xml version="1.0" encoding="utf-8"?>
<!-- Generator: Adobe Illustrator 23.0.6, SVG Export Plug-In . SVG Version: 6.00 Build 0)  -->
<svg version="1.1" id="Layer_1" xmlns="http://www.w3.org/2000/svg" xmlns:xlink="http://www.w3.org/1999/xlink" x="0px" y="0px"
	 viewBox="0 0 150 61" style="enable-background:new 0 0 150 61;" xml:space="preserve">
<style type="text/css">
	.st0{fill:#E95328;}
	.st1{fill:#7FBB42;}
	.st2{fill:#0079A4;}
	.st3{fill:#32A0DA;}
	.st4{fill:#FDB717;}
	.st5{fill:#74401A;}
	.st6{fill:#347439;}
	.st7{fill:#5D6162;}
</style>
<g>
	<path class="st0" d="M36.73212,37.91702V21.57421c-1.47604-1.53998-2.43793-4.01126-2.43793-6.78529V8.53463
		c0-4.64063-3.79634-8.43569-8.4352-8.43569H8.43441C3.79572,0.09894,0,3.894,0,8.53463v29.38239
		c0,4.63931,3.79572,8.43565,8.43441,8.43565h29.38432c1.31512,0,2.56213-0.30544,3.67454-0.84809
		C38.68159,44.13239,36.73212,41.24089,36.73212,37.91702z"/>
	<path class="st1" d="M73.46024,37.84103V21.56955c-1.47378-1.53998-2.43392-4.009-2.43392-6.78063V8.53414
		c0-4.64013-3.79618-8.43585-8.43569-8.43585H45.16669c-4.63885,0-8.43457,3.79572-8.43457,8.43585v13.04008
		c0.99317,1.0361,2.21904,1.65105,3.54217,1.65105c3.28894,0,5.98075,3.79568,5.98075,8.43566v6.2561
		c0,3.32452-1.94964,6.21537-4.76177,7.58756c1.11208,0.54265,2.35876,0.84809,3.67342,0.84809h29.38416
		c1.34525,0,2.61855-0.32084,3.7497-0.88721C75.4464,44.10964,73.46024,41.19697,73.46024,37.84103z"/>
	<path class="st2" d="M77.00658,23.22445c-1.32507,0-2.55238-0.61637-3.54634-1.65506v16.27164
		c0,3.35593,1.98634,6.2686,4.84032,7.62442c2.77098-1.38693,4.68549-4.2547,4.68549-7.54877v-6.25607
		C82.98605,27.02079,80.29489,23.22445,77.00658,23.22445z"/>
	<path class="st3" d="M101.76228,38.1731L116.2941,11.683c-2.76904-6.83013-9.4431-11.6602-17.26176-11.6602
		c-1.0574,0-17.13706,0-17.13706,0c-4.63931,0-8.43504,3.79572-8.43504,8.43523v13.11153
		c0.99396,1.03869,2.22128,1.65506,3.54634,1.65506c3.28831,0,5.97947,3.79634,5.97947,8.43631v6.2561
		c0,3.29374-1.91451,6.16151-4.68549,7.54844c1.09203,0.51895,2.31068,0.81061,3.59472,0.81061h16.43287
		c1.49849,0,2.90784-0.39777,4.131-1.09042C100.52922,43.75158,100.13401,41.14058,101.76228,38.1731z"/>
	<path class="st4" d="M148.97842,38.17855L129.83389,3.37042c-2.47289-4.49558-6.51507-4.49381-8.98218,0.00479L116.2941,11.683
		c0.8818,2.17463,1.37124,4.55007,1.37124,7.0393c0,7.53341-4.42619,14.00823-10.90213,16.98211v2.13662
		c0,3.14118-1.74083,5.89325-4.30407,7.34462c0.99556,0.73978,2.39913,1.16702,4.1454,1.16702h37.54063
		C149.27618,46.35267,151.45227,42.67429,148.97842,38.17855z"/>
	<path class="st5" d="M46.25504,31.66125c0-4.64013-2.69181-8.43585-5.98075-8.43585c-1.32313,0-2.549-0.61492-3.54217-1.65102
		v16.34297c0,3.32387,1.94947,6.21504,4.76115,7.58723c2.81213-1.37187,4.76177-4.26304,4.76177-7.58723V31.66125z"/>
	<path class="st6" d="M106.76321,35.70441c6.47594-2.97388,10.90213-9.44854,10.90213-16.98195
		c0-2.48923-0.48944-4.86467-1.37124-7.0393L101.76228,38.1731c-1.62827,2.96778-1.23306,5.57849,0.69685,7.01255
		c2.56324-1.45136,4.30407-4.20343,4.30407-7.34462V35.70441z"/>
	<g>
		<path class="st7" d="M0.56865,52.36722c0.03542-0.00545,0.0814-0.01028,0.13831-0.01349
			c0.05622-0.00256,0.11409-0.00417,0.17356-0.00417c0.05366,0,0.10703,0.00161,0.16073,0.00417
			c0.05337,0.00322,0.10096,0.00804,0.14248,0.01349v5.85091H3.9217c0.00607,0.03496,0.01057,0.08143,0.01379,0.13782
			c0.00272,0.05708,0.00433,0.10579,0.00433,0.14747c0,0.04776-0.00161,0.09647-0.00433,0.14678
			c-0.00322,0.05035-0.00771,0.09361-0.01379,0.12952H0.56865V52.36722z"/>
		<path class="st7" d="M5.25926,56.59435c0,0.60675,0.13976,1.05228,0.4194,1.33819
			c0.27919,0.28558,0.69829,0.42757,1.25729,0.42757c0.22598,0,0.43575-0.01891,0.62871-0.05767
			c0.19329-0.03912,0.38192-0.09072,0.56638-0.15643c0.02947,0.06571,0.05353,0.14648,0.07149,0.24105
			c0.01763,0.09518,0.02964,0.18174,0.03558,0.25896c-0.17261,0.07693-0.37453,0.13687-0.60629,0.17823
			c-0.23205,0.04168-0.48465,0.06249-0.75822,0.06249c-0.39249,0-0.72983-0.05832-1.01237-0.17402
			c-0.28257-0.11606-0.51413-0.27823-0.69557-0.48593c-0.18124-0.2077-0.31506-0.45642-0.40145-0.7446
			c-0.08622-0.28848-0.12902-0.60514-0.12902-0.95004c0-0.33301,0.03991-0.64459,0.12036-0.93625
			c0.08028-0.29169,0.20209-0.54747,0.36541-0.76702c0.16332-0.21958,0.37309-0.39235,0.62871-0.51672
			c0.25578-0.12564,0.56221-0.18813,0.91895-0.18813c0.29714,0,0.56175,0.05064,0.7938,0.15193
			c0.23172,0.10162,0.42613,0.24232,0.584,0.4234c0.15722,0.18144,0.27646,0.39876,0.35674,0.65133
			c0.08028,0.25227,0.12019,0.52696,0.12019,0.82505c0,0.05288-0.00161,0.12148-0.0045,0.20448
			c-0.00302,0.08399-0.00752,0.15515-0.01313,0.21413H5.25926z M7.93486,56.10392c0-0.18397-0.02403-0.36508-0.07129-0.54393
			c-0.04763-0.17822-0.12213-0.334-0.22309-0.4683c-0.10099-0.13365-0.23176-0.242-0.39219-0.32501
			c-0.16057-0.08333-0.35402-0.12469-0.57967-0.12469c-0.41635,0-0.74024,0.12791-0.97232,0.38369
			c-0.23172,0.25546-0.37148,0.61476-0.41907,1.07824H7.93486z"/>
		<path class="st7" d="M12.32275,55.77409c0-0.39232-0.09216-0.67919-0.27646-0.8606
			c-0.18446-0.18111-0.45771-0.27151-0.82055-0.27151c-0.2375,0-0.45498,0.01572-0.65116,0.04874
			c-0.19598,0.03269-0.37148,0.07273-0.52614,0.12049c-0.0298-0.0535-0.05498-0.13109-0.07582-0.23238
			c-0.02081-0.10063-0.03108-0.19582-0.03108-0.28526c0.15449-0.04713,0.34473-0.08718,0.57071-0.11987
			c0.22582-0.03272,0.45803-0.04969,0.69553-0.04969c0.57695,0,1.00472,0.1263,1.28436,0.37949
			c0.27968,0.2526,0.41911,0.64971,0.41911,1.19078v3.00526c-0.20819,0.04168-0.46063,0.08334-0.7579,0.12469
			c-0.29763,0.04168-0.57951,0.06249-0.84717,0.06249c-0.55289,0-0.98867-0.11025-1.30678-0.33012
			c-0.31798-0.21958-0.47694-0.57665-0.47694-1.07056c0-0.23721,0.04582-0.44973,0.13815-0.63754
			c0.09246-0.18689,0.21988-0.34457,0.38366-0.47215c0.16332-0.12791,0.35947-0.22437,0.58834-0.29008
			c0.22884-0.06538,0.48015-0.09808,0.75389-0.09808c0.2141,0,0.39823,0.00768,0.55272,0.02213
			c0.15466,0.01536,0.2824,0.02786,0.38353,0.04004V55.77409z M12.32275,56.56806c-0.10112-0.01188-0.22726-0.02563-0.37919-0.0407
			c-0.15144-0.01444-0.29553-0.0215-0.43256-0.0215c-0.44586,0-0.79055,0.08304-1.03416,0.24905
			c-0.2441,0.167-0.3659,0.4045-0.3659,0.71349c0,0.19683,0.03719,0.35418,0.1114,0.47313
			c0.07434,0.11892,0.171,0.20927,0.28992,0.2718c0.11924,0.06216,0.24968,0.10352,0.39249,0.12469
			c0.14248,0.02147,0.28542,0.03171,0.42807,0.03171c0.1843,0,0.35674-0.00962,0.51747-0.02692
			c0.16043-0.01762,0.31798-0.04165,0.47248-0.07148V56.56806z"/>
		<path class="st7" d="M17.45089,52.22424c0.03542-0.00578,0.08623-0.00929,0.15177-0.0125
			c0.06509-0.00351,0.11251-0.00512,0.14265-0.00512c0.03542,0,0.08461,0.00161,0.14694,0.00512
			c0.06269,0.00322,0.1114,0.00673,0.14747,0.0125v6.4484c-0.18449,0.05993-0.41366,0.11025-0.68674,0.15161
			c-0.27357,0.04168-0.55932,0.06249-0.85662,0.06249c-0.32661,0-0.63304-0.03909-0.9183-0.11603
			c-0.28562-0.07756-0.53208-0.20514-0.74027-0.38366c-0.20803-0.1779-0.37309-0.41284-0.49489-0.70453
			c-0.1218-0.29169-0.18289-0.65099-0.18289-1.07922c0-0.39232,0.05337-0.74139,0.1606-1.04749
			c0.10707-0.3061,0.25851-0.56477,0.45482-0.77602c0.19634-0.21088,0.4324-0.37276,0.70886-0.48623
			c0.27679-0.11251,0.58112-0.16956,0.91433-0.16956c0.19614,0,0.39071,0.01697,0.584,0.04969
			c0.19342,0.03269,0.3492,0.06955,0.46827,0.11087V52.22424z M17.45089,54.83751c-0.11908-0.0471-0.27052-0.09039-0.45465-0.12948
			c-0.18463-0.03814-0.3747-0.05704-0.57088-0.05704c-0.27964,0-0.52167,0.04677-0.72711,0.14199
			c-0.20484,0.09518-0.37581,0.22756-0.51239,0.39712c-0.13716,0.16926-0.23973,0.37312-0.30817,0.61095
			c-0.06811,0.23717-0.10227,0.49939-0.10227,0.78465c0,0.61863,0.14714,1.06895,0.44156,1.35103
			c0.29392,0.28302,0.71171,0.4234,1.25279,0.4234c0.19647,0,0.38333-0.01057,0.56205-0.03108
			c0.17803-0.02084,0.31795-0.04552,0.41907-0.07595V54.83751z"/>
		<path class="st7" d="M19.88563,54.73077h-0.57088c-0.00607-0.0298-0.01024-0.06571-0.01346-0.10736
			c-0.00289-0.04136-0.0045-0.08622-0.0045-0.13335c0-0.04808,0.00161-0.09486,0.0045-0.14294
			c0.00322-0.04713,0.00738-0.08622,0.01346-0.11603h1.15938v4.54863c-0.03574,0.00545-0.08478,0.01024-0.14698,0.01346
			c-0.06233,0.00256-0.11153,0.00417-0.14744,0.00417c-0.02967,0-0.07726-0.00161-0.14264-0.00417
			c-0.06555-0.00322-0.11586-0.00801-0.15144-0.01346V54.73077z M19.59122,53.11661
			c-0.00607-0.05353-0.0104-0.11892-0.01346-0.19651c-0.00289-0.07661-0.0045-0.14231-0.0045-0.19585
			c0-0.04776,0.00161-0.10703,0.0045-0.17885c0.00305-0.07116,0.00739-0.13014,0.01346-0.17819
			c0.05353-0.00545,0.11908-0.01028,0.19618-0.01349c0.07707-0.00256,0.14261-0.00417,0.19614-0.00417
			c0.04746,0,0.10707,0.00161,0.17855,0.00417c0.071,0.00322,0.1306,0.00804,0.17803,0.01349
			c0.00611,0.04805,0.0106,0.10703,0.01378,0.17819c0.00259,0.07182,0.00417,0.13109,0.00417,0.17885
			c0,0.05354-0.00158,0.11924-0.00417,0.19585c-0.00318,0.07759-0.00768,0.14297-0.01378,0.19651
			c-0.04743,0.00574-0.10703,0.01057-0.17803,0.0128c-0.07149,0.00322-0.13109,0.00482-0.17855,0.00482
			c-0.05353,0-0.11908-0.00161-0.19614-0.00482C19.7103,53.12718,19.64475,53.12236,19.59122,53.11661z"/>
		<path class="st7" d="M22.04359,54.23109c0.04759-0.00545,0.09357-0.01027,0.13815-0.01349
			c0.04438-0.00223,0.0875-0.00384,0.12902-0.00384c0.04759,0,0.09246,0.00161,0.13398,0.00384
			c0.04148,0.00322,0.08622,0.00804,0.13381,0.01349c0.01185,0.10736,0.02081,0.24072,0.02659,0.40128
			c0.0061,0.1606,0.00899,0.30036,0.00899,0.41927c0.05944-0.10707,0.13687-0.21574,0.23205-0.32504
			c0.09505-0.11025,0.20642-0.20993,0.33433-0.29871c0.12788-0.08944,0.27485-0.16221,0.44152-0.21893
			c0.16651-0.05609,0.34775-0.08494,0.54393-0.08494c0.52341,0,0.90372,0.15577,1.14188,0.46827
			c0.2375,0.3122,0.35674,0.751,0.35674,1.3161v2.87132c-0.03621,0.00545-0.08478,0.01024-0.14744,0.01346
			c-0.06249,0.00256-0.11153,0.00417-0.14711,0.00417c-0.03,0-0.07759-0.00161-0.14264-0.00417
			c-0.06555-0.00322-0.11619-0.00801-0.15177-0.01346V56.0863c0-0.50579-0.07871-0.86831-0.23609-1.08819
			c-0.15784-0.21988-0.39423-0.32983-0.70899-0.32983c-0.20835,0-0.40466,0.04136-0.58883,0.12469
			c-0.1843,0.08366-0.34329,0.20353-0.4771,0.36124c-0.13382,0.15801-0.23927,0.35225-0.31683,0.58463
			c-0.0771,0.23176-0.1157,0.49617-0.1157,0.79331v2.24756c-0.03558,0.00545-0.08478,0.01024-0.14714,0.01346
			c-0.06266,0.00256-0.11137,0.00417-0.14727,0.00417c-0.02964,0-0.0771-0.00161-0.14265-0.00417
			c-0.06554-0.00322-0.11586-0.00801-0.15144-0.01346V54.23109z"/>
		<path class="st7" d="M29.49012,58.32519c0.52342,0.01185,0.89667,0.11957,1.11943,0.325
			c0.22293,0.20514,0.33433,0.47697,0.33433,0.81672c0,0.23143-0.05947,0.44073-0.17822,0.62792
			c-0.11892,0.18752-0.28559,0.34808-0.49969,0.48144c-0.2138,0.13431-0.46814,0.23848-0.76206,0.3125
			C29.20949,60.96314,28.88977,61,28.54504,61c-0.26763,0-0.51285-0.02084-0.73594-0.06216
			c-0.22276-0.04168-0.41622-0.109-0.57951-0.20068c-0.16378-0.09197-0.28992-0.2141-0.37903-0.36541
			c-0.08928-0.1516-0.13398-0.3378-0.13398-0.55771c0-0.22595,0.06555-0.44329,0.19618-0.65099
			c0.13076-0.20832,0.30049-0.36252,0.50868-0.46348c-0.11317-0.07178-0.20819-0.16185-0.28578-0.27213
			c-0.07707-0.11058-0.1157-0.24551-0.1157-0.40611c0-0.23143,0.05498-0.42501,0.16493-0.57918
			c0.10992-0.15482,0.25719-0.29491,0.44136-0.41927c-0.20803-0.13109-0.37424-0.3061-0.49923-0.52663
			c-0.12518-0.21955-0.18735-0.48111-0.18735-0.78465c0-0.21988,0.03702-0.42662,0.1112-0.61991
			c0.07454-0.19231,0.18594-0.36091,0.33466-0.50323c0.14839-0.14327,0.3314-0.25578,0.54826-0.33974
			c0.21732-0.08304,0.46828-0.12469,0.75389-0.12469c0.24374,0,0.46059,0.03108,0.65116,0.09357
			c0.19007,0.0622,0.35658,0.14458,0.49936,0.24521c0.05915-0.02307,0.13368-0.05032,0.22293-0.07979
			c0.08911-0.02951,0.18735-0.05514,0.29441-0.07566c0.10707-0.02117,0.21686-0.03847,0.32983-0.05386
			c0.11281-0.01506,0.22309-0.02242,0.33016-0.02242c0.02337,0.08941,0.03542,0.18719,0.03542,0.29422
			c0,0.1135-0.01204,0.2138-0.03542,0.30357h-0.84734c0.08301,0.13109,0.14698,0.26924,0.19168,0.41441
			c0.04438,0.14553,0.06683,0.30226,0.06683,0.46831c0,0.25578-0.04437,0.48209-0.13398,0.67761
			c-0.08911,0.19647-0.21252,0.36187-0.36974,0.49519c-0.15801,0.13368-0.34201,0.23688-0.55305,0.3077
			c-0.21124,0.07116-0.43851,0.10707-0.68224,0.10707c-0.25562,0-0.47855-0.03269-0.66911-0.09807
			c-0.16621,0.10674-0.28368,0.20993-0.35195,0.30738c-0.06873,0.0984-0.10273,0.20996-0.10273,0.33463
			c0,0.05931,0.009,0.11606,0.02695,0.16926c0.01795,0.05383,0.05465,0.10257,0.1112,0.14744
			c0.05659,0.04454,0.13513,0.08045,0.23655,0.10674c0.10067,0.02757,0.23176,0.04008,0.39235,0.04008L29.49012,58.32519z
			 M28.22404,58.8595c-0.27984-0.00578-0.50389,0.07372-0.67361,0.23655c-0.1694,0.16381-0.25401,0.37952-0.25401,0.64715
			c0,0.14232,0.03269,0.26123,0.09807,0.35642c0.06525,0.09489,0.15594,0.16926,0.27213,0.22279
			c0.1159,0.0535,0.25083,0.09007,0.40549,0.11186c0.15449,0.02084,0.31795,0.03108,0.49039,0.03108
			c0.55309,0,0.9842-0.09361,1.29332-0.28109c0.30915-0.18722,0.46381-0.41126,0.46381-0.67345
			c0-0.22631-0.07723-0.38592-0.23173-0.48111c-0.15466-0.09617-0.40755-0.14616-0.75822-0.15161L28.22404,58.8595z
			 M27.56388,55.7116c0,0.30931,0.09072,0.56989,0.27213,0.7808c0.18128,0.21092,0.46493,0.31605,0.85167,0.31605
			c0.38622,0,0.6718-0.10513,0.85613-0.31605c0.18413-0.21091,0.27643-0.47149,0.27643-0.7808
			c0-0.30899-0.09229-0.56861-0.27643-0.78048c-0.18433-0.21091-0.46991-0.3167-0.85613-0.3167
			c-0.38674,0-0.67039,0.10579-0.85167,0.3167C27.65461,55.14299,27.56388,55.40261,27.56388,55.7116z"/>
		<path class="st7" d="M34.27063,52.36722c0.03574-0.00545,0.08176-0.01028,0.13831-0.01349
			c0.05626-0.00256,0.11429-0.00417,0.17389-0.00417c0.05337,0,0.1069,0.00161,0.16043,0.00417
			c0.05353,0.00322,0.10112,0.00804,0.14261,0.01349v5.85091H37.624c0.00594,0.03496,0.01027,0.08143,0.01346,0.13782
			c0.00289,0.05708,0.00449,0.10579,0.00449,0.14747c0,0.04776-0.00161,0.09647-0.00449,0.14678
			c-0.00319,0.05035-0.00752,0.09361-0.01346,0.12952h-3.35337V52.36722z"/>
		<path class="st7" d="M38.96141,56.59435c0,0.60675,0.13976,1.05228,0.41943,1.33819
			c0.27932,0.28558,0.69826,0.42757,1.25709,0.42757c0.22614,0,0.43578-0.01891,0.62874-0.05767
			c0.19342-0.03912,0.38205-0.09072,0.56651-0.15643c0.02967,0.06571,0.0537,0.14648,0.07165,0.24105
			c0.01746,0.09518,0.02935,0.18174,0.03542,0.25896c-0.17261,0.07693-0.37469,0.13687-0.60642,0.17823
			c-0.23208,0.04168-0.48449,0.06249-0.75822,0.06249c-0.39216,0-0.72967-0.05832-1.01223-0.17402
			c-0.28237-0.11606-0.51413-0.27823-0.69553-0.48593c-0.18128-0.2077-0.31526-0.45642-0.40132-0.7446
			c-0.08639-0.28848-0.12899-0.60514-0.12899-0.95004c0-0.33301,0.03988-0.64459,0.12019-0.93625
			c0.08012-0.29169,0.20209-0.54747,0.36554-0.76702c0.16332-0.21958,0.37312-0.39235,0.62874-0.51672
			c0.25562-0.12564,0.56205-0.18813,0.91879-0.18813c0.29727,0,0.56155,0.05064,0.79361,0.15193
			c0.23176,0.10162,0.42633,0.24232,0.584,0.4234c0.15755,0.18144,0.27663,0.39876,0.35678,0.65133
			c0.08028,0.25227,0.12019,0.52696,0.12019,0.82505c0,0.05288-0.00144,0.12148-0.00417,0.20448
			c-0.00322,0.08399-0.00771,0.15515-0.01333,0.21413H38.96141z M41.6372,56.10392c0-0.18397-0.02406-0.36508-0.07165-0.54393
			c-0.04759-0.17822-0.1218-0.334-0.22277-0.4683c-0.10129-0.13365-0.23172-0.242-0.39249-0.32501
			c-0.16043-0.08333-0.35386-0.12469-0.57951-0.12469c-0.41622,0-0.74027,0.12791-0.97232,0.38369
			c-0.23176,0.25546-0.37151,0.61476-0.41911,1.07824H41.6372z"/>
		<path class="st7" d="M46.0249,55.77409c0-0.39232-0.09229-0.67919-0.27642-0.8606
			c-0.18463-0.18111-0.4579-0.27151-0.82043-0.27151c-0.23783,0-0.45514,0.01572-0.65112,0.04874
			c-0.19634,0.03269-0.37168,0.07273-0.52617,0.12049c-0.03013-0.0535-0.05527-0.13109-0.07595-0.23238
			c-0.02084-0.10063-0.03108-0.19582-0.03108-0.28526c0.15466-0.04713,0.34457-0.08718,0.57084-0.11987
			c0.22565-0.03272,0.4577-0.04969,0.69556-0.04969c0.57662,0,1.00452,0.1263,1.28404,0.37949
			c0.27981,0.2526,0.41907,0.64971,0.41907,1.19078v3.00526c-0.20803,0.04168-0.46059,0.08334-0.75757,0.12469
			c-0.29776,0.04168-0.57983,0.06249-0.84747,0.06249c-0.55292,0-0.98867-0.11025-1.30665-0.33012
			c-0.31795-0.21958-0.47694-0.57665-0.47694-1.07056c0-0.23721,0.04598-0.44973,0.13815-0.63754
			c0.09233-0.18689,0.21971-0.34457,0.38353-0.47215c0.16329-0.12791,0.35963-0.22437,0.58847-0.29008
			c0.22887-0.06538,0.48016-0.09808,0.75373-0.09808c0.21426,0,0.39827,0.00768,0.55292,0.02213
			c0.1545,0.01536,0.28237,0.02786,0.3835,0.04004V55.77409z M46.0249,56.56806c-0.10112-0.01188-0.22739-0.02563-0.379-0.0407
			c-0.15147-0.01444-0.29569-0.0215-0.43273-0.0215c-0.44585,0-0.79058,0.08304-1.03436,0.24905
			c-0.2439,0.167-0.3657,0.4045-0.3657,0.71349c0,0.19683,0.03702,0.35418,0.11136,0.47313
			c0.07438,0.11892,0.17084,0.20927,0.29008,0.2718c0.11891,0.06216,0.24971,0.10352,0.39216,0.12469
			c0.14265,0.02147,0.28562,0.03171,0.42839,0.03171c0.18417,0,0.35674-0.00962,0.51718-0.02692
			c0.1606-0.01762,0.31811-0.04165,0.47261-0.07148V56.56806z"/>
		<path class="st7" d="M48.09378,54.23109c0.04759-0.00545,0.09341-0.01027,0.13815-0.01349
			c0.04438-0.00223,0.08751-0.00384,0.12915-0.00384c0.04743,0,0.09233,0.00161,0.13382,0.00384
			c0.04152,0.00322,0.08622,0.00804,0.13369,0.01349c0.01218,0.10736,0.02081,0.23333,0.02691,0.37854
			c0.00594,0.14648,0.0088,0.27853,0.0088,0.39744c0.11895-0.21988,0.28562-0.40578,0.49972-0.55706
			c0.2138-0.15164,0.49601-0.22759,0.84734-0.22759c0.02948,0,0.06072,0,0.09341,0c0.03285,0,0.06988,0.00322,0.11156,0.00866
			c0.01792,0.10159,0.02675,0.1968,0.02675,0.28559c0,0.09456-0.00883,0.18751-0.02675,0.27629
			c-0.04763-0.00578-0.08478-0.00899-0.11156-0.00899c-0.02675,0-0.05514,0-0.08478,0c-0.40417,0-0.72806,0.12791-0.97232,0.38369
			c-0.2436,0.25546-0.36541,0.68047-0.36541,1.27504v2.337c-0.03558,0.00545-0.08478,0.01024-0.14695,0.01346
			c-0.06282,0.00256-0.11156,0.00417-0.14744,0.00417c-0.02967,0-0.0771-0.00161-0.14264-0.00417
			c-0.06555-0.00322-0.11586-0.00801-0.15144-0.01346V54.23109z"/>
		<path class="st7" d="M51.21523,54.23109c0.04759-0.00545,0.09361-0.01027,0.13831-0.01349
			c0.04441-0.00223,0.08734-0.00384,0.12902-0.00384c0.04743,0,0.0923,0.00161,0.13382,0.00384
			c0.04152,0.00322,0.08622,0.00804,0.13382,0.01349c0.01201,0.10736,0.02084,0.24072,0.02675,0.40128
			c0.00594,0.1606,0.00883,0.30036,0.00883,0.41927c0.05947-0.10707,0.13687-0.21574,0.23205-0.32504
			c0.09505-0.11025,0.20658-0.20993,0.33433-0.29871c0.12787-0.08944,0.27485-0.16221,0.44152-0.21893
			c0.16651-0.05609,0.34779-0.08494,0.54409-0.08494c0.52328,0,0.90356,0.15577,1.14172,0.46827
			c0.23753,0.3122,0.35674,0.751,0.35674,1.3161v2.87132c-0.03604,0.00545-0.08478,0.01024-0.14744,0.01346
			c-0.06233,0.00256-0.11153,0.00417-0.14694,0.00417c-0.03013,0-0.07772-0.00161-0.14281-0.00417
			c-0.06538-0.00322-0.11619-0.00801-0.1516-0.01346V56.0863c0-0.50579-0.07884-0.86831-0.23622-1.08819
			c-0.15771-0.21988-0.39426-0.32983-0.70903-0.32983c-0.20819,0-0.40466,0.04136-0.58879,0.12469
			c-0.18417,0.08366-0.34329,0.20353-0.47697,0.36124c-0.13382,0.15801-0.23927,0.35225-0.31683,0.58463
			c-0.07707,0.23176-0.11586,0.49617-0.11586,0.79331v2.24756c-0.03558,0.00545-0.08478,0.01024-0.14698,0.01346
			c-0.06282,0.00256-0.11153,0.00417-0.14744,0.00417c-0.02947,0-0.07706-0.00161-0.14264-0.00417
			c-0.06555-0.00322-0.11586-0.00801-0.15144-0.01346V54.23109z"/>
		<path class="st7" d="M56.59307,54.73077H56.0222c-0.00607-0.0298-0.01041-0.06571-0.01362-0.10736
			c-0.00272-0.04136-0.00433-0.08622-0.00433-0.13335c0-0.04808,0.00161-0.09486,0.00433-0.14294
			c0.00322-0.04713,0.00755-0.08622,0.01362-0.11603h1.15938v4.54863c-0.03558,0.00545-0.08478,0.01024-0.14714,0.01346
			c-0.06233,0.00256-0.11153,0.00417-0.14743,0.00417c-0.02951,0-0.07694-0.00161-0.14248-0.00417
			c-0.06554-0.00322-0.11603-0.00801-0.15144-0.01346V54.73077z M56.29866,53.11661
			c-0.00607-0.05353-0.01041-0.11892-0.01362-0.19651c-0.00272-0.07661-0.00433-0.14231-0.00433-0.19585
			c0-0.04776,0.00161-0.10703,0.00433-0.17885c0.00322-0.07116,0.00755-0.13014,0.01362-0.17819
			c0.05337-0.00545,0.11891-0.01028,0.19617-0.01349c0.07707-0.00256,0.14261-0.00417,0.19598-0.00417
			c0.04762,0,0.10706,0.00161,0.17871,0.00417c0.071,0.00322,0.1306,0.00804,0.17806,0.01349
			c0.00607,0.04805,0.01041,0.10703,0.01375,0.17819c0.00272,0.07182,0.00417,0.13109,0.00417,0.17885
			c0,0.05354-0.00144,0.11924-0.00417,0.19585c-0.00335,0.07759-0.00768,0.14297-0.01375,0.19651
			c-0.04746,0.00574-0.10707,0.01057-0.17806,0.0128c-0.07165,0.00322-0.13109,0.00482-0.17871,0.00482
			c-0.05337,0-0.11892-0.00161-0.19598-0.00482C56.41757,53.12718,56.35203,53.12236,56.29866,53.11661z"/>
		<path class="st7" d="M58.75103,54.23109c0.04759-0.00545,0.09344-0.01027,0.13831-0.01349
			c0.04421-0.00223,0.08734-0.00384,0.12886-0.00384c0.04759,0,0.0923,0.00161,0.13382,0.00384
			c0.04165,0.00322,0.08639,0.00804,0.13398,0.01349c0.01185,0.10736,0.02068,0.24072,0.02658,0.40128
			c0.00611,0.1606,0.00883,0.30036,0.00883,0.41927c0.0596-0.10707,0.13703-0.21574,0.23222-0.32504
			c0.09489-0.11025,0.20642-0.20993,0.33433-0.29871c0.12787-0.08944,0.27485-0.16221,0.44136-0.21893
			c0.16667-0.05609,0.34792-0.08494,0.54409-0.08494c0.52325,0,0.90356,0.15577,1.14172,0.46827
			c0.23766,0.3122,0.35674,0.751,0.35674,1.3161v2.87132c-0.03604,0.00545-0.08461,0.01024-0.14744,0.01346
			c-0.06216,0.00256-0.11136,0.00417-0.14694,0.00417c-0.03,0-0.07759-0.00161-0.14281-0.00417
			c-0.06522-0.00322-0.11603-0.00801-0.1516-0.01346V56.0863c0-0.50579-0.07884-0.86831-0.23609-1.08819
			c-0.15784-0.21988-0.39423-0.32983-0.70916-0.32983c-0.20803,0-0.40466,0.04136-0.58879,0.12469
			c-0.18417,0.08366-0.34315,0.20353-0.47697,0.36124c-0.13382,0.15801-0.23927,0.35225-0.31667,0.58463
			c-0.07726,0.23176-0.11603,0.49617-0.11603,0.79331v2.24756c-0.03542,0.00545-0.08461,0.01024-0.14698,0.01346
			c-0.06266,0.00256-0.11153,0.00417-0.14744,0.00417c-0.02947,0-0.07693-0.00161-0.14248-0.00417
			c-0.06555-0.00322-0.11603-0.00801-0.15144-0.01346V54.23109z"/>
		<path class="st7" d="M66.19756,58.32519c0.52325,0.01185,0.89651,0.11957,1.11943,0.325
			c0.22277,0.20514,0.33433,0.47697,0.33433,0.81672c0,0.23143-0.05947,0.44073-0.17806,0.62792
			c-0.11924,0.18752-0.28574,0.34808-0.49985,0.48144c-0.21364,0.13431-0.46814,0.23848-0.76223,0.3125
			C65.91676,60.96314,65.59721,61,65.25247,61c-0.26763,0-0.51284-0.02084-0.73593-0.06216
			c-0.22277-0.04168-0.41622-0.109-0.57951-0.20068c-0.16378-0.09197-0.29008-0.2141-0.3792-0.36541
			c-0.08911-0.1516-0.13365-0.3378-0.13365-0.55771c0-0.22595,0.06538-0.44329,0.19601-0.65099
			c0.1306-0.20832,0.30049-0.36252,0.50851-0.46348c-0.11301-0.07178-0.20802-0.16185-0.28545-0.27213
			c-0.07723-0.11058-0.11603-0.24551-0.11603-0.40611c0-0.23143,0.05514-0.42501,0.16493-0.57918
			c0.10992-0.15482,0.25736-0.29491,0.44152-0.41927c-0.20819-0.13109-0.37437-0.3061-0.49939-0.52663
			c-0.12502-0.21955-0.18735-0.48111-0.18735-0.78465c0-0.21988,0.03719-0.42662,0.11153-0.61991
			c0.07421-0.19231,0.18578-0.36091,0.33433-0.50323c0.14872-0.14327,0.33157-0.25578,0.54859-0.33974
			c0.21715-0.08304,0.46797-0.12469,0.75372-0.12469c0.24361,0,0.46059,0.03108,0.65116,0.09357
			c0.1902,0.0622,0.35674,0.14458,0.49936,0.24521c0.05898-0.02307,0.13368-0.05032,0.22276-0.07979
			c0.08911-0.02951,0.18738-0.05514,0.29441-0.07566c0.10706-0.02117,0.21702-0.03847,0.32999-0.05386
			c0.11268-0.01506,0.22293-0.02242,0.33016-0.02242c0.02353,0.08941,0.03542,0.18719,0.03542,0.29422
			c0,0.1135-0.01189,0.2138-0.03542,0.30357h-0.8475c0.08317,0.13109,0.14714,0.26924,0.19185,0.41441
			c0.04437,0.14553,0.06666,0.30226,0.06666,0.46831c0,0.25578-0.04421,0.48209-0.13381,0.67761
			c-0.08912,0.19647-0.21252,0.36187-0.36987,0.49519c-0.15788,0.13368-0.34201,0.23688-0.55293,0.3077
			c-0.21141,0.07116-0.43864,0.10707-0.68224,0.10707c-0.25562,0-0.47871-0.03269-0.66927-0.09807
			c-0.16618,0.10674-0.28352,0.20993-0.35178,0.30738c-0.0686,0.0984-0.10274,0.20996-0.10274,0.33463
			c0,0.05931,0.00883,0.11606,0.02678,0.16926c0.01796,0.05383,0.05465,0.10257,0.11153,0.14744
			c0.05625,0.04454,0.13496,0.08045,0.23638,0.10674c0.10067,0.02757,0.23176,0.04008,0.39236,0.04008L66.19756,58.32519z
			 M64.93131,58.8595c-0.27968-0.00578-0.50372,0.07372-0.67345,0.23655c-0.1694,0.16381-0.25417,0.37952-0.25417,0.64715
			c0,0.14232,0.03269,0.26123,0.09824,0.35642c0.06509,0.09489,0.15594,0.16926,0.27213,0.22279
			c0.11589,0.0535,0.25082,0.09007,0.40548,0.11186c0.15466,0.02084,0.31795,0.03108,0.49056,0.03108
			c0.55276,0,0.98387-0.09361,1.29303-0.28109c0.30915-0.18722,0.46378-0.41126,0.46378-0.67345
			c0-0.22631-0.0769-0.38592-0.23156-0.48111c-0.15482-0.09617-0.40755-0.14616-0.75839-0.15161L64.93131,58.8595z
			 M64.27132,55.7116c0,0.30931,0.09072,0.56989,0.272,0.7808c0.18157,0.21092,0.46506,0.31605,0.8518,0.31605
			c0.38622,0,0.67197-0.10513,0.85613-0.31605c0.18414-0.21091,0.27647-0.47149,0.27647-0.7808
			c0-0.30899-0.09233-0.56861-0.27647-0.78048c-0.18417-0.21091-0.46991-0.3167-0.85613-0.3167
			c-0.38674,0-0.67023,0.10579-0.8518,0.3167C64.36205,55.14299,64.27132,55.40261,64.27132,55.7116z"/>
		<path class="st7" d="M70.97778,52.36722c0.05911-0.00545,0.14261-0.01605,0.24968-0.03112
			c0.10706-0.01441,0.22453-0.02659,0.35224-0.03587c0.12791-0.00867,0.25851-0.01766,0.39236-0.02662
			c0.13381-0.00867,0.25401-0.01346,0.36107-0.01346c0.35081,0,0.66908,0.0362,0.95454,0.10707
			c0.2851,0.07113,0.53031,0.1843,0.73578,0.33879c0.20481,0.15482,0.36379,0.35546,0.47694,0.60226
			c0.11297,0.24715,0.1694,0.54554,0.1694,0.89653c0,0.37404-0.06394,0.69521-0.19185,0.96287
			c-0.12771,0.26763-0.3,0.48495-0.51701,0.65132c-0.21716,0.16602-0.46955,0.28815-0.75803,0.36571
			c-0.28851,0.07661-0.59011,0.11573-0.9052,0.11573c-0.13716,0-0.25578-0.00322-0.35674-0.009
			c-0.10113-0.00607-0.21732-0.01474-0.34808-0.02691v2.51519c-0.04153,0.00545-0.08895,0.01024-0.14249,0.01346
			c-0.05353,0.00256-0.10723,0.00417-0.1606,0.00417c-0.05944,0-0.11763-0.00161-0.17386-0.00417
			c-0.05659-0.00322-0.10257-0.00801-0.13815-0.01346V52.36722z M71.59286,55.6943c0.0596,0.00545,0.11153,0.00991,0.15627,0.01251
			c0.04487,0.00318,0.08907,0.0064,0.13381,0.00962c0.04438,0.00256,0.09502,0.00574,0.15144,0.00896
			c0.05672,0.00322,0.12932,0.00384,0.21843,0.00384c0.21429,0,0.42518-0.01762,0.63321-0.05353
			c0.20819-0.03525,0.39715-0.10769,0.56654-0.21827c0.16939-0.10995,0.30593-0.26412,0.41011-0.46414
			c0.10385-0.1987,0.15627-0.46187,0.15627-0.78849c0-0.26218-0.04024-0.47982-0.12052-0.65582
			c-0.08044-0.17501-0.19457-0.31667-0.34329-0.4234c-0.14855-0.10736-0.32983-0.18462-0.54392-0.23205
			c-0.2143-0.04776-0.45196-0.07182-0.71352-0.07182c-0.15466,0-0.2912,0.00483-0.41041,0.01379
			c-0.11895,0.00899-0.21685,0.01891-0.29441,0.03108V55.6943z"/>
		<path class="st7" d="M78.13035,55.77409c0-0.39232-0.09197-0.67919-0.2766-0.8606
			c-0.18462-0.18111-0.45741-0.27151-0.82023-0.27151c-0.23786,0-0.45547,0.01572-0.65132,0.04874
			c-0.19617,0.03269-0.37151,0.07273-0.52617,0.12049c-0.0298-0.0535-0.05495-0.13109-0.07579-0.23238
			c-0.02068-0.10063-0.03124-0.19582-0.03124-0.28526c0.15466-0.04713,0.34489-0.08718,0.57084-0.11987
			c0.22582-0.03272,0.4582-0.04969,0.6954-0.04969c0.57695,0,1.00485,0.1263,1.28436,0.37949
			c0.27981,0.2526,0.41924,0.64971,0.41924,1.19078v3.00526c-0.20833,0.04168-0.46059,0.08334-0.75806,0.12469
			c-0.2971,0.04168-0.57951,0.06249-0.84681,0.06249c-0.55293,0-0.989-0.11025-1.30698-0.33012
			c-0.31796-0.21958-0.47694-0.57665-0.47694-1.07056c0-0.23721,0.04585-0.44973,0.13831-0.63754
			c0.09216-0.18689,0.21955-0.34457,0.38336-0.47215c0.16346-0.12791,0.35947-0.22437,0.58847-0.29008
			c0.22887-0.06538,0.48016-0.09808,0.75389-0.09808c0.21413,0,0.3981,0.00768,0.55293,0.02213
			c0.1545,0.01536,0.28237,0.02786,0.38333,0.04004V55.77409z M78.13035,56.56806c-0.10096-0.01188-0.22723-0.02563-0.37917-0.0407
			c-0.15131-0.01444-0.29552-0.0215-0.4324-0.0215c-0.44619,0-0.79076,0.08304-1.03436,0.24905
			c-0.24422,0.167-0.36603,0.4045-0.36603,0.71349c0,0.19683,0.03719,0.35418,0.11153,0.47313
			c0.07421,0.11892,0.17101,0.20927,0.28992,0.2718c0.11908,0.06216,0.24988,0.10352,0.39249,0.12469
			c0.14265,0.02147,0.28562,0.03171,0.42824,0.03171c0.184,0,0.35674-0.00962,0.51734-0.02692
			c0.1606-0.01762,0.31795-0.04165,0.47244-0.07148V56.56806z"/>
		<path class="st7" d="M80.19939,54.23109c0.04743-0.00545,0.09357-0.01027,0.13815-0.01349
			c0.04455-0.00223,0.08751-0.00384,0.12916-0.00384c0.04743,0,0.09233,0.00161,0.13365,0.00384
			c0.04169,0.00322,0.08656,0.00804,0.13368,0.01349c0.01185,0.10736,0.02081,0.23333,0.02692,0.37854
			c0.0061,0.14648,0.00896,0.27853,0.00896,0.39744c0.11891-0.21988,0.28529-0.40578,0.49972-0.55706
			c0.2138-0.15164,0.49617-0.22759,0.84717-0.22759c0.02948,0,0.06055,0,0.09357,0c0.03236,0,0.06988,0.00322,0.11156,0.00866
			c0.01762,0.10159,0.02659,0.1968,0.02659,0.28559c0,0.09456-0.00896,0.18751-0.02659,0.27629
			c-0.04779-0.00578-0.08465-0.00899-0.11156-0.00899c-0.02691,0-0.05514,0-0.08494,0c-0.40417,0-0.7279,0.12791-0.97249,0.38369
			c-0.24361,0.25546-0.36508,0.68047-0.36508,1.27504v2.337c-0.03558,0.00545-0.08495,0.01024-0.14711,0.01346
			c-0.06282,0.00256-0.11156,0.00417-0.14744,0.00417c-0.0295,0-0.07693-0.00161-0.14232-0.00417
			c-0.0657-0.00322-0.11636-0.00801-0.1516-0.01346V54.23109z"/>
		<path class="st7" d="M83.52548,54.73077h-0.77565c-0.00578-0.0298-0.01028-0.06827-0.01346-0.11636
			c-0.00288-0.04677-0.00417-0.09456-0.00417-0.14261c0-0.04713,0.00128-0.092,0.00417-0.13336
			c0.00318-0.04165,0.00768-0.07756,0.01346-0.10736h0.77565v-0.85646l0.55293-0.5433h0.03623v1.39977h1.23051
			c0.00545,0.0298,0.00994,0.06571,0.01313,0.10736c0.00288,0.04136,0.00449,0.08622,0.00449,0.13336
			c0,0.04805-0.00161,0.09584-0.00449,0.14261c-0.00319,0.04808-0.00768,0.08655-0.01313,0.11636h-1.23051v2.96072
			c0,0.14875,0.01891,0.26606,0.058,0.35228c0.03815,0.08652,0.08878,0.15351,0.15131,0.20064
			c0.06216,0.04808,0.13365,0.07917,0.2141,0.09361c0.08044,0.01474,0.16188,0.02209,0.24522,0.02209
			c0.20803,0,0.38943-0.02626,0.54393-0.07979c0.04168,0.15417,0.07116,0.32117,0.08911,0.49939
			c-0.21381,0.06571-0.46381,0.0984-0.74877,0.0984c-0.33912,0-0.61414-0.09138-0.82535-0.27279
			c-0.21124-0.18108-0.3167-0.47661-0.3167-0.88689V54.73077z"/>
		<path class="st7" d="M86.34393,54.23109c0.04775-0.00545,0.09357-0.01027,0.13844-0.01349
			c0.04391-0.00223,0.0872-0.00384,0.12853-0.00384c0.04776,0,0.09232,0.00161,0.13431,0.00384
			c0.04135,0.00322,0.08589,0.00804,0.13365,0.01349c0.01221,0.10736,0.02117,0.24072,0.02662,0.40128
			c0.0061,0.1606,0.00896,0.30036,0.00896,0.41927c0.05964-0.10707,0.13687-0.21574,0.23241-0.32504
			c0.09453-0.11025,0.20609-0.20993,0.33397-0.29871c0.12791-0.08944,0.27469-0.16221,0.44139-0.21893
			c0.16667-0.05609,0.34808-0.08494,0.54393-0.08494c0.52374,0,0.90421,0.15577,1.14204,0.46827
			c0.2375,0.3122,0.35674,0.751,0.35674,1.3161v2.87132c-0.03623,0.00545-0.08462,0.01024-0.14744,0.01346
			c-0.06219,0.00256-0.11123,0.00417-0.14681,0.00417c-0.03013,0-0.07789-0.00161-0.14265-0.00417
			c-0.06538-0.00322-0.11635-0.00801-0.15193-0.01346V56.0863c0-0.50579-0.07916-0.86831-0.23622-1.08819
			c-0.15771-0.21988-0.39426-0.32983-0.70899-0.32983c-0.20835,0-0.40482,0.04136-0.58883,0.12469
			c-0.1843,0.08366-0.34328,0.20353-0.47726,0.36124c-0.13332,0.15801-0.23911,0.35225-0.31667,0.58463
			c-0.07694,0.23176-0.11573,0.49617-0.11573,0.79331v2.24756c-0.03558,0.00545-0.08462,0.01024-0.14711,0.01346
			c-0.0625,0.00256-0.11124,0.00417-0.14744,0.00417c-0.02951,0-0.07693-0.00161-0.14265-0.00417
			c-0.06538-0.00322-0.1157-0.00801-0.15128-0.01346V54.23109z"/>
		<path class="st7" d="M91.81951,56.59435c0,0.60675,0.14005,1.05228,0.41924,1.33819
			c0.27951,0.28558,0.69875,0.42757,1.25712,0.42757c0.2266,0,0.43591-0.01891,0.6292-0.05767
			c0.19329-0.03912,0.38176-0.09072,0.56638-0.15643c0.02947,0.06571,0.05353,0.14648,0.07149,0.24105
			c0.01762,0.09518,0.0298,0.18174,0.03525,0.25896c-0.17245,0.07693-0.37469,0.13687-0.60612,0.17823
			c-0.23238,0.04168-0.48466,0.06249-0.75839,0.06249c-0.39199,0-0.72983-0.05832-1.0122-0.17402
			c-0.2824-0.11606-0.51413-0.27823-0.69524-0.48593c-0.18141-0.2077-0.31539-0.45642-0.40162-0.7446
			c-0.08655-0.28848-0.12918-0.60514-0.12918-0.95004c0-0.33301,0.04007-0.64459,0.12019-0.93625
			c0.08044-0.29169,0.20258-0.54747,0.36607-0.76702c0.16312-0.21958,0.37276-0.39235,0.62854-0.51672
			c0.25578-0.12564,0.56188-0.18813,0.91862-0.18813c0.29747,0,0.56159,0.05064,0.79397,0.15193
			c0.2314,0.10162,0.4263,0.24232,0.58401,0.4234c0.15705,0.18144,0.2763,0.39876,0.35641,0.65133
			c0.08077,0.25227,0.12053,0.52696,0.12053,0.82505c0,0.05288-0.00162,0.12148-0.00417,0.20448
			c-0.00322,0.08399-0.00768,0.15515-0.01346,0.21413H91.81951z M94.49561,56.10392c0-0.18397-0.02436-0.36508-0.07211-0.54393
			c-0.04746-0.17822-0.12148-0.334-0.22247-0.4683c-0.10129-0.13365-0.23172-0.242-0.39262-0.32501
			c-0.16027-0.08333-0.35389-0.12469-0.57954-0.12469c-0.41605,0-0.7401,0.12791-0.97215,0.38369
			c-0.23173,0.25546-0.37148,0.61476-0.41924,1.07824H94.49561z"/>
		<path class="st7" d="M96.37743,54.23109c0.04742-0.00545,0.09361-0.01027,0.13782-0.01349
			c0.04457-0.00223,0.08751-0.00384,0.12919-0.00384c0.04743,0,0.0923,0.00161,0.13365,0.00384
			c0.04169,0.00322,0.08656,0.00804,0.13398,0.01349c0.01218,0.10736,0.02084,0.23333,0.02692,0.37854
			c0.00578,0.14648,0.00867,0.27853,0.00867,0.39744c0.11891-0.21988,0.28558-0.40578,0.49972-0.55706
			c0.21377-0.15164,0.49617-0.22759,0.84747-0.22759c0.02917,0,0.06059,0,0.09361,0c0.03237,0,0.06955,0.00322,0.11121,0.00866
			c0.01795,0.10159,0.02695,0.1968,0.02695,0.28559c0,0.09456-0.009,0.18751-0.02695,0.27629
			c-0.04776-0.00578-0.08462-0.00899-0.11121-0.00899c-0.02728,0-0.05547,0-0.08494,0c-0.40421,0-0.72826,0.12791-0.97249,0.38369
			c-0.24361,0.25546-0.36508,0.68047-0.36508,1.27504v2.337c-0.03558,0.00545-0.08495,0.01024-0.14714,0.01346
			c-0.06282,0.00256-0.11153,0.00417-0.14744,0.00417c-0.0298,0-0.07693-0.00161-0.14265-0.00417
			c-0.06538-0.00322-0.1157-0.00801-0.15128-0.01346V54.23109z"/>
		<path class="st7" d="M99.27532,58.15563c0.13077,0.05353,0.30032,0.09935,0.50868,0.13848
			c0.2077,0.03814,0.40706,0.05704,0.59684,0.05704c0.35707,0,0.63943-0.07822,0.84747-0.23622
			c0.20802-0.15738,0.3125-0.35258,0.3125-0.584c0-0.1606-0.03141-0.29235-0.0939-0.39649
			c-0.06249-0.10451-0.14583-0.19168-0.24968-0.2635c-0.10385-0.07116-0.22148-0.12948-0.35258-0.1734
			c-0.13047-0.04454-0.26382-0.09101-0.40069-0.13815c-0.14905-0.04808-0.29616-0.10162-0.44169-0.16056
			c-0.1455-0.05997-0.27499-0.13592-0.38783-0.22792c-0.1128-0.092-0.20386-0.20353-0.2718-0.33462
			c-0.0686-0.13047-0.1029-0.29425-0.1029-0.49043c0-0.36187,0.13204-0.65674,0.39682-0.88305
			c0.26445-0.22532,0.67341-0.33879,1.22633-0.33879c0.23176,0,0.45643,0.02114,0.67312,0.06249
			c0.21732,0.04168,0.38527,0.08622,0.50418,0.13398c-0.0298,0.17278-0.07116,0.34201-0.12498,0.50838
			c-0.12469-0.04168-0.28401-0.08337-0.47697-0.12469c-0.19326-0.04168-0.3936-0.0622-0.60193-0.0622
			c-0.36317,0-0.62024,0.06381-0.77151,0.19168c-0.1516,0.12787-0.22726,0.29553-0.22726,0.50323
			c0,0.11346,0.02501,0.21026,0.07565,0.29008c0.05032,0.07983,0.11891,0.14872,0.20514,0.20514
			c0.08589,0.05704,0.18397,0.10579,0.29454,0.14711c0.10963,0.04168,0.22694,0.08015,0.35162,0.11606
			c0.1606,0.0535,0.3231,0.11153,0.48627,0.17402c0.16345,0.0622,0.31216,0.14392,0.44585,0.24522
			c0.13365,0.10096,0.24357,0.22887,0.33012,0.38366c0.0859,0.1542,0.12919,0.34746,0.12919,0.57921
			c0,0.2141-0.04329,0.409-0.12919,0.58401c-0.08656,0.17563-0.20675,0.32438-0.36124,0.44681
			c-0.15482,0.12118-0.33878,0.21475-0.55289,0.28014c-0.21413,0.06538-0.44907,0.0984-0.70453,0.0984
			c-0.28529,0-0.53913-0.01762-0.76256-0.05353c-0.22338-0.03588-0.40289-0.08301-0.53943-0.14327
			C99.14167,58.51205,99.19806,58.33386,99.27532,58.15563z"/>
		<path class="st7" d="M107.19495,52.36722c0.04103-0.00545,0.09808-0.01028,0.16956-0.01349
			c0.07083-0.00256,0.13654-0.00417,0.19585-0.00417c0.06538,0,0.13238,0.00161,0.20065,0.00417
			c0.0686,0.00322,0.12341,0.00804,0.16539,0.01349l2.14017,6.41249c-0.03558,0.00545-0.08652,0.01024-0.1516,0.01346
			c-0.06538,0.00256-0.12788,0.00417-0.18719,0.00417c-0.05386,0-0.11058-0.00161-0.16956-0.00417
			c-0.05931-0.00322-0.11025-0.00801-0.15161-0.01346l-0.53497-1.63248h-2.64018l-0.50838,1.63248
			c-0.04743,0.00545-0.10224,0.01024-0.16473,0.01346c-0.0622,0.00256-0.12053,0.00417-0.17373,0.00417
			c-0.05964,0-0.12086-0.00161-0.18302-0.00417c-0.06252-0.00322-0.11156-0.00801-0.14714-0.01346L107.19495,52.36722z
			 M108.69279,56.57702l-1.15005-3.56715l-1.13243,3.56715H108.69279z"/>
		<path class="st7" d="M110.90507,58.15563c0.13047,0.05353,0.30003,0.09935,0.50835,0.13848
			c0.20803,0.03814,0.4071,0.05704,0.59717,0.05704c0.35707,0,0.63944-0.07822,0.84747-0.23622
			c0.20803-0.15738,0.31254-0.35258,0.31254-0.584c0-0.1606-0.03141-0.29235-0.09424-0.39649
			c-0.06252-0.10451-0.14586-0.19168-0.24938-0.2635c-0.10417-0.07116-0.22214-0.12948-0.35257-0.1734
			c-0.13047-0.04454-0.26445-0.09101-0.40099-0.13815c-0.14937-0.04808-0.29619-0.10162-0.44135-0.16056
			c-0.14587-0.05997-0.27535-0.13592-0.38819-0.22792c-0.11314-0.092-0.20383-0.20353-0.2718-0.33462
			c-0.0686-0.13047-0.10257-0.29425-0.10257-0.49043c0-0.36187,0.13208-0.65674,0.39649-0.88305
			c0.26445-0.22532,0.67345-0.33879,1.22637-0.33879c0.23172,0,0.45609,0.02114,0.67308,0.06249
			c0.21764,0.04168,0.3853,0.08622,0.50451,0.13398c-0.03013,0.17278-0.07178,0.34201-0.12531,0.50838
			c-0.12469-0.04168-0.28365-0.08337-0.47694-0.12469c-0.19329-0.04168-0.39394-0.0622-0.60196-0.0622
			c-0.36285,0-0.61991,0.06381-0.77119,0.19168c-0.15193,0.12787-0.22758,0.29553-0.22758,0.50323
			c0,0.11346,0.02534,0.21026,0.07565,0.29008c0.05064,0.07983,0.11892,0.14872,0.20547,0.20514
			c0.0859,0.05704,0.18365,0.10579,0.29426,0.14711c0.10959,0.04168,0.22722,0.08015,0.35191,0.11606
			c0.16027,0.0535,0.32277,0.11153,0.48626,0.17402c0.16345,0.0622,0.31155,0.14392,0.44585,0.24522
			c0.13365,0.10096,0.24361,0.22887,0.32951,0.38366c0.08652,0.1542,0.12981,0.34746,0.12981,0.57921
			c0,0.2141-0.04329,0.409-0.12981,0.58401c-0.0859,0.17563-0.20612,0.32438-0.36062,0.44681
			c-0.15479,0.12118-0.33912,0.21475-0.55289,0.28014c-0.21443,0.06538-0.44907,0.0984-0.70486,0.0984
			c-0.28526,0-0.53914-0.01762-0.76223-0.05353c-0.22339-0.03588-0.40322-0.08301-0.53944-0.14327
			C110.77109,58.51205,110.82751,58.33386,110.90507,58.15563z"/>
		<path class="st7" d="M114.66839,58.15563c0.1308,0.05353,0.30003,0.09935,0.50867,0.13848
			c0.20741,0.03814,0.4071,0.05704,0.59717,0.05704c0.35642,0,0.63911-0.07822,0.84715-0.23622
			c0.20835-0.15738,0.3122-0.35258,0.3122-0.584c0-0.1606-0.03108-0.29235-0.09361-0.39649
			c-0.06216-0.10451-0.14583-0.19168-0.25001-0.2635c-0.10352-0.07116-0.22083-0.12948-0.35191-0.1734
			c-0.1308-0.04454-0.26445-0.09101-0.40132-0.13815c-0.14871-0.04808-0.29585-0.10162-0.44136-0.16056
			c-0.14586-0.05997-0.27502-0.13592-0.38815-0.22792c-0.11251-0.092-0.20356-0.20353-0.27183-0.33462
			c-0.06857-0.13047-0.10257-0.29425-0.10257-0.49043c0-0.36187,0.1324-0.65674,0.39649-0.88305
			c0.26477-0.22532,0.67377-0.33879,1.22669-0.33879c0.23173,0,0.45609,0.02114,0.67308,0.06249
			c0.21732,0.04168,0.38497,0.08622,0.50389,0.13398c-0.0298,0.17278-0.07116,0.34201-0.12469,0.50838
			c-0.12469-0.04168-0.2843-0.08337-0.47694-0.12469c-0.19362-0.04168-0.39394-0.0622-0.60196-0.0622
			c-0.36285,0-0.62024,0.06381-0.77184,0.19168c-0.15161,0.12787-0.22694,0.29553-0.22694,0.50323
			c0,0.11346,0.02502,0.21026,0.07533,0.29008c0.05064,0.07983,0.11925,0.14872,0.20514,0.20514
			c0.0859,0.05704,0.18462,0.10579,0.29458,0.14711c0.10992,0.04168,0.22756,0.08015,0.35192,0.11606
			c0.16093,0.0535,0.3231,0.11153,0.48626,0.17402c0.16316,0.0622,0.3122,0.14392,0.44553,0.24522
			c0.13398,0.10096,0.24393,0.22887,0.33049,0.38366c0.08589,0.1542,0.12882,0.34746,0.12882,0.57921
			c0,0.2141-0.04293,0.409-0.12882,0.58401c-0.08656,0.17563-0.20708,0.32438-0.36157,0.44681
			c-0.1545,0.12118-0.33849,0.21475-0.55292,0.28014c-0.21378,0.06538-0.44875,0.0984-0.70453,0.0984
			c-0.28526,0-0.53911-0.01762-0.7622-0.05353c-0.22309-0.03588-0.40292-0.08301-0.53979-0.14327
			C114.53441,58.51205,114.59116,58.33386,114.66839,58.15563z"/>
		<path class="st7" d="M120.59915,58.88675c-0.33881,0-0.63593-0.06089-0.89171-0.18302
			c-0.25578-0.12147-0.46831-0.29008-0.63754-0.50418c-0.16989-0.21315-0.29616-0.4667-0.3792-0.7574
			c-0.08334-0.29169-0.12531-0.60423-0.12531-0.93629c0-0.33334,0.04198-0.64555,0.12531-0.9372
			c0.08304-0.29074,0.2093-0.54298,0.3792-0.75744c0.16923-0.2141,0.38175-0.38172,0.63754-0.50385
			c0.25578-0.12148,0.55289-0.18334,0.89171-0.18334c0.33879,0,0.63465,0.06187,0.88788,0.18334
			c0.25191,0.12213,0.46378,0.28976,0.63303,0.50385c0.16924,0.21446,0.29681,0.4667,0.38334,0.75744
			c0.08592,0.29166,0.12852,0.60386,0.12852,0.9372c0,0.33206-0.0426,0.6446-0.12852,0.93629
			c-0.08652,0.2907-0.2141,0.54425-0.38334,0.7574c-0.16926,0.2141-0.38113,0.38271-0.63303,0.50418
			C121.2338,58.82586,120.93794,58.88675,120.59915,58.88675z M120.59915,58.36973c0.47533,0,0.83047-0.167,1.06573-0.50001
			c0.23498-0.33239,0.35195-0.78786,0.35195-1.36386c0-0.57695-0.11697-1.03147-0.35195-1.36448
			c-0.23527-0.33334-0.5904-0.49939-1.06573-0.49939c-0.47598,0-0.83115,0.16605-1.06609,0.49939
			c-0.23461,0.33302-0.35162,0.78754-0.35162,1.36448c0,0.576,0.11701,1.03147,0.35162,1.36386
			C119.76801,58.20273,120.12317,58.36973,120.59915,58.36973z"/>
		<path class="st7" d="M126.95746,58.20916c0.03014,0.05898,0.05803,0.13976,0.08527,0.24039
			c0.02692,0.10162,0.04585,0.18495,0.05803,0.25001c-0.14904,0.05386-0.31893,0.09777-0.509,0.13365
			c-0.19007,0.03591-0.40067,0.05353-0.63304,0.05353c-0.743,0-1.30809-0.20386-1.69497-0.61125
			c-0.38593-0.40673-0.57951-0.99717-0.57951-1.76964c0-0.33974,0.04775-0.6526,0.14326-0.94108
			c0.09489-0.28847,0.23465-0.5391,0.41927-0.75356c0.18364-0.2141,0.41474-0.38172,0.69071-0.50385
			c0.27695-0.12148,0.59621-0.18334,0.95902-0.18334c0.22565,0,0.44136,0.01697,0.6462,0.04969
			c0.20544,0.03269,0.36699,0.06955,0.48623,0.11087c0,0.07759-0.01024,0.16637-0.03141,0.26799
			c-0.02019,0.10125-0.04326,0.18141-0.06666,0.24039c-0.11891-0.04168-0.26924-0.07661-0.45036-0.10706
			c-0.1814-0.0298-0.37598-0.04392-0.58401-0.04392c-0.26796,0-0.50066,0.04552-0.70065,0.13782
			c-0.19907,0.092-0.36508,0.22149-0.49939,0.38786c-0.13368,0.167-0.2327,0.36282-0.29842,0.5888
			c-0.06538,0.22598-0.09778,0.47536-0.09778,0.74939c0,0.64138,0.15259,1.1129,0.45869,1.41355
			c0.30643,0.30032,0.7215,0.45032,1.24429,0.45032c0.17822,0,0.34939-0.01536,0.51285-0.04454
			C126.67959,58.29572,126.82637,58.25659,126.95746,58.20916z"/>
		<path class="st7" d="M128.5005,54.73077h-0.57085c-0.00578-0.0298-0.01028-0.06571-0.0135-0.10736
			c-0.00285-0.04136-0.00417-0.08622-0.00417-0.13335c0-0.04808,0.00131-0.09486,0.00417-0.14294
			c0.00322-0.04713,0.00771-0.08622,0.0135-0.11603h1.15935v4.54863c-0.03592,0.00545-0.08463,0.01024-0.14716,0.01346
			c-0.06216,0.00256-0.11119,0.00417-0.14677,0.00417c-0.03014,0-0.07788-0.00161-0.14326-0.00417
			c-0.06541-0.00322-0.11574-0.00801-0.15131-0.01346V54.73077z M128.20657,53.11661
			c-0.00639-0.05353-0.01089-0.11892-0.01411-0.19651c-0.00256-0.07661-0.00446-0.14231-0.00446-0.19585
			c0-0.04776,0.00189-0.10703,0.00446-0.17885c0.00322-0.07116,0.00772-0.13014,0.01411-0.17819
			c0.05321-0.00545,0.11891-0.01028,0.19585-0.01349c0.07693-0.00256,0.14232-0.00417,0.19585-0.00417
			c0.04776,0,0.1077,0.00161,0.17885,0.00417c0.07117,0.00322,0.13048,0.00804,0.17824,0.01349
			c0.00574,0.04805,0.0099,0.10703,0.01312,0.17819c0.00322,0.07182,0.0045,0.13109,0.0045,0.17885
			c0,0.05354-0.00128,0.11924-0.0045,0.19585c-0.00322,0.07759-0.00739,0.14297-0.01312,0.19651
			c-0.04776,0.00574-0.10707,0.01057-0.17824,0.0128c-0.07115,0.00322-0.13109,0.00482-0.17885,0.00482
			c-0.05353,0-0.11891-0.00161-0.19585-0.00482C128.32549,53.12718,128.25978,53.12236,128.20657,53.11661z"/>
		<path class="st7" d="M133.16486,55.77409c0-0.39232-0.09201-0.67919-0.27663-0.8606
			c-0.18463-0.18111-0.45741-0.27151-0.81993-0.27151c-0.23816,0-0.45576,0.01572-0.65163,0.04874
			c-0.19585,0.03269-0.37151,0.07273-0.526,0.12049c-0.03014-0.0535-0.05478-0.13109-0.07594-0.23238
			c-0.02084-0.10063-0.0311-0.19582-0.0311-0.28526c0.1545-0.04713,0.34491-0.08718,0.57085-0.11987
			c0.22566-0.03272,0.45804-0.04969,0.69525-0.04969c0.57693,0,1.00517,0.1263,1.28435,0.37949
			c0.28015,0.2526,0.41925,0.64971,0.41925,1.19078v3.00526c-0.20804,0.04168-0.4606,0.08334-0.75774,0.12469
			c-0.29744,0.04168-0.57951,0.06249-0.84714,0.06249c-0.55293,0-0.98883-0.11025-1.30682-0.33012
			c-0.31827-0.21958-0.47726-0.57665-0.47726-1.07056c0-0.23721,0.04585-0.44973,0.13881-0.63754
			c0.0923-0.18689,0.21954-0.34457,0.38303-0.47215c0.16347-0.12791,0.35931-0.22437,0.58849-0.29008
			c0.22885-0.06538,0.48015-0.09808,0.75388-0.09808c0.21443,0,0.3981,0.00768,0.55293,0.02213
			c0.1545,0.01536,0.28236,0.02786,0.38336,0.04004V55.77409z M133.16486,56.56806c-0.101-0.01188-0.22696-0.02563-0.3792-0.0407
			c-0.15131-0.01444-0.29553-0.0215-0.4324-0.0215c-0.44618,0-0.79076,0.08304-1.03465,0.24905
			c-0.24361,0.167-0.36574,0.4045-0.36574,0.71349c0,0.19683,0.03752,0.35418,0.11124,0.47313
			c0.07468,0.11892,0.17114,0.20927,0.29037,0.2718c0.11891,0.06216,0.25002,0.10352,0.39233,0.12469
			c0.14264,0.02147,0.28561,0.03171,0.42822,0.03171c0.18401,0,0.35707-0.00962,0.51735-0.02692
			c0.16089-0.01762,0.31798-0.04165,0.47247-0.07148V56.56806z"/>
		<path class="st7" d="M135.43867,54.73077h-0.77536c-0.00639-0.0298-0.01089-0.06827-0.01411-0.11636
			c-0.00256-0.04677-0.0045-0.09456-0.0045-0.14261c0-0.04713,0.00194-0.092,0.0045-0.13336
			c0.00322-0.04165,0.00772-0.07756,0.01411-0.10736h0.77536v-0.85646l0.55292-0.5433h0.03558v1.39977h1.2305
			c0.00639,0.0298,0.01089,0.06571,0.01408,0.10736c0.00259,0.04136,0.00417,0.08622,0.00417,0.13336
			c0,0.04805-0.00157,0.09584-0.00417,0.14261c-0.00319,0.04808-0.00769,0.08655-0.01408,0.11636h-1.2305v2.96072
			c0,0.14875,0.01985,0.26606,0.05865,0.35228c0.03813,0.08652,0.08911,0.15351,0.15128,0.20064
			c0.06187,0.04808,0.13365,0.07917,0.21381,0.09361c0.08011,0.01474,0.16154,0.02209,0.2455,0.02209
			c0.20804,0,0.38943-0.02626,0.54393-0.07979c0.04137,0.15417,0.07149,0.32117,0.08911,0.49939
			c-0.21442,0.06571-0.46381,0.0984-0.74873,0.0984c-0.33977,0-0.61446-0.09138-0.82504-0.27279
			c-0.21121-0.18108-0.317-0.47661-0.317-0.88689V54.73077z"/>
		<path class="st7" d="M138.53337,54.73077h-0.57088c-0.00574-0.0298-0.01024-0.06571-0.01346-0.10736
			c-0.00288-0.04136-0.00417-0.08622-0.00417-0.13335c0-0.04808,0.00128-0.09486,0.00417-0.14294
			c0.00322-0.04713,0.00772-0.08622,0.01346-0.11603h1.15938v4.54863c-0.0359,0.00545-0.08461,0.01024-0.14714,0.01346
			c-0.06216,0.00256-0.11121,0.00417-0.14677,0.00417c-0.03014,0-0.0779-0.00161-0.14331-0.00417
			c-0.0657-0.00322-0.11569-0.00801-0.15128-0.01346V54.73077z M138.23946,53.11661
			c-0.00641-0.05353-0.01089-0.11892-0.01411-0.19651c-0.00256-0.07661-0.00447-0.14231-0.00447-0.19585
			c0-0.04776,0.00191-0.10703,0.00447-0.17885c0.00322-0.07116,0.00771-0.13014,0.01411-0.17819
			c0.05321-0.00545,0.11891-0.01028,0.19585-0.01349c0.0769-0.00256,0.14261-0.00417,0.19585-0.00417
			c0.04776,0,0.10704,0.00161,0.17885,0.00417c0.07117,0.00322,0.13043,0.00804,0.17819,0.01349
			c0.00578,0.04805,0.00995,0.10703,0.01317,0.17819c0.00317,0.07182,0.00449,0.13109,0.00449,0.17885
			c0,0.05354-0.00131,0.11924-0.00449,0.19585c-0.00322,0.07759-0.00739,0.14297-0.01317,0.19651
			c-0.04776,0.00574-0.10703,0.01057-0.17819,0.0128c-0.07181,0.00322-0.13109,0.00482-0.17885,0.00482
			c-0.05324,0-0.11894-0.00161-0.19585-0.00482C138.35837,53.12718,138.29266,53.12236,138.23946,53.11661z"/>
		<path class="st7" d="M142.46626,58.88675c-0.33847,0-0.63626-0.06089-0.89139-0.18302
			c-0.25578-0.12147-0.46831-0.29008-0.63817-0.50418c-0.16927-0.21315-0.29585-0.4667-0.37857-0.7574
			c-0.08395-0.29169-0.12531-0.60423-0.12531-0.93629c0-0.33334,0.04135-0.64555,0.12531-0.9372
			c0.08272-0.29074,0.2093-0.54298,0.37857-0.75744c0.16986-0.2141,0.38239-0.38172,0.63817-0.50385
			c0.25513-0.12148,0.55292-0.18334,0.89139-0.18334c0.33911,0,0.63496,0.06187,0.88754,0.18334
			c0.25259,0.12213,0.46381,0.28976,0.6337,0.50385c0.16922,0.21446,0.29713,0.4667,0.38303,0.75744
			c0.08557,0.29166,0.12886,0.60386,0.12886,0.9372c0,0.33206-0.04329,0.6446-0.12886,0.93629
			c-0.08589,0.2907-0.21381,0.54425-0.38303,0.7574c-0.16989,0.2141-0.3811,0.38271-0.6337,0.50418
			C143.10123,58.82586,142.80537,58.88675,142.46626,58.88675z M142.46626,58.36973c0.47598,0,0.83083-0.167,1.06543-0.50001
			c0.2356-0.33239,0.35258-0.78786,0.35258-1.36386c0-0.57695-0.11699-1.03147-0.35258-1.36448
			c-0.2346-0.33334-0.58945-0.49939-1.06543-0.49939c-0.476,0-0.8308,0.16605-1.06575,0.49939
			c-0.23463,0.33302-0.35161,0.78754-0.35161,1.36448c0,0.576,0.11697,1.03147,0.35161,1.36386
			C141.63547,58.20273,141.99026,58.36973,142.46626,58.36973z"/>
		<path class="st7" d="M145.81067,54.23109c0.04776-0.00545,0.09358-0.01027,0.13815-0.01349
			c0.04454-0.00223,0.08783-0.00384,0.12915-0.00384c0.04776,0,0.09233,0.00161,0.13368,0.00384
			c0.04198,0.00322,0.08652,0.00804,0.13399,0.01349c0.01218,0.10736,0.02051,0.24072,0.0269,0.40128
			c0.00578,0.1606,0.00897,0.30036,0.00897,0.41927c0.05898-0.10707,0.13654-0.21574,0.23143-0.32504
			c0.0955-0.11025,0.20674-0.20993,0.33461-0.29871c0.12791-0.08944,0.27502-0.16221,0.4417-0.21893
			c0.1667-0.05609,0.34778-0.08494,0.54396-0.08494c0.52341,0,0.90323,0.15577,1.14172,0.46827
			c0.23749,0.3122,0.35641,0.751,0.35641,1.3161v2.87132c-0.03558,0.00545-0.08463,0.01024-0.14711,0.01346
			c-0.06219,0.00256-0.11186,0.00417-0.14682,0.00417c-0.03046,0-0.07756-0.00161-0.14326-0.00417
			c-0.06538-0.00322-0.11569-0.00801-0.15128-0.01346V56.0863c0-0.50579-0.07887-0.86831-0.23593-1.08819
			c-0.158-0.21988-0.39455-0.32983-0.70932-0.32983c-0.20836,0-0.40483,0.04136-0.5885,0.12469
			c-0.18462,0.08366-0.34361,0.20353-0.47726,0.36124c-0.13365,0.15801-0.23911,0.35225-0.317,0.58463
			c-0.07693,0.23176-0.11572,0.49617-0.11572,0.79331v2.24756c-0.03558,0.00545-0.08463,0.01024-0.14679,0.01346
			c-0.06314,0.00256-0.11156,0.00417-0.14777,0.00417c-0.02917,0-0.07693-0.00161-0.1423-0.00417
			c-0.06572-0.00322-0.11603-0.00801-0.15161-0.01346V54.23109z"/>
	</g>
</g>
</svg>
