<?xml version="1.0" encoding="UTF-8"?>
<svg id="Layer_2" data-name="Layer 2" xmlns="http://www.w3.org/2000/svg" viewBox="0 0 450.46 159.06">
  <defs>
    <style>
      .cls-1 {
        fill: #0f4efe;
      }
    </style>
  </defs>
  <g id="Layer_1-2" data-name="Layer 1">
    <g>
      <g>
        <polygon class="cls-1" points="290.87 117.35 222.41 33.14 203.43 33.14 203.43 157.29 226.31 157.29 226.31 73.1 294.59 157.29 313.57 157.29 313.57 33.14 290.87 33.14 290.87 117.35"/>
        <path class="cls-1" d="M404.2,96.01c-4.38-2.54-9.16-4.61-14.37-6.21-5.2-1.6-10.46-2.98-15.78-4.17-5.32-1.18-10.14-2.42-14.45-3.72-4.32-1.3-7.8-3.1-10.46-5.41-2.66-2.31-3.99-5.35-3.99-9.13,0-3.07.91-5.88,2.75-8.42,1.83-2.54,4.76-4.58,8.78-6.12,4.02-1.53,9.16-2.31,15.43-2.31,5.44,0,11.11.8,17.03,2.39,5.91,1.6,11.64,4.05,17.2,7.36l7.27-17.91c-5.44-3.55-11.82-6.27-19.15-8.16-7.33-1.89-14.72-2.84-22.17-2.84-11.35,0-20.72,1.68-28.11,5.05-7.39,3.37-12.89,7.86-16.49,13.48-3.61,5.62-5.41,11.79-5.41,18.53s1.33,12.06,3.99,16.32c2.66,4.26,6.18,7.66,10.55,10.2,4.37,2.54,9.19,4.64,14.45,6.3,5.26,1.66,10.52,3.05,15.78,4.17,5.26,1.12,10.05,2.37,14.37,3.72,4.31,1.36,7.83,3.19,10.55,5.5,2.72,2.31,4.08,5.35,4.08,9.13,0,3.08-.95,5.82-2.84,8.25-1.89,2.43-4.85,4.35-8.87,5.76-4.02,1.42-9.28,2.13-15.78,2.13-7.69,0-15.19-1.3-22.52-3.9-7.33-2.6-13.48-5.85-18.44-9.76l-7.98,17.91c5.32,4.38,12.38,7.95,21.19,10.73,8.81,2.78,18.06,4.17,27.76,4.17,11.35,0,20.75-1.68,28.2-5.05,7.45-3.37,12.97-7.86,16.58-13.48,3.61-5.61,5.41-11.73,5.41-18.36s-1.33-11.85-3.99-16.05c-2.66-4.2-6.18-7.57-10.55-10.11Z"/>
        <rect class="cls-1" x="427.4" y="33.14" width="23.06" height="124.15"/>
      </g>
      <g>
        <path class="cls-1" d="M0,157.02L55.62,33.41h22.6l55.8,123.61h-24.19L62.16,45.59h9.18l-47.86,111.43H0ZM25.61,128.41l6.36-18.01h66.57l6.18,18.01H25.61Z"/>
        <g>
          <path class="cls-1" d="M182.77,31.2c-27.35,2.13-29.07,3.86-31.2,31.2-2.13-27.35-3.86-29.07-31.2-31.2,27.35-2.13,29.07-3.86,31.2-31.2,2.13,27.35,3.86,29.07,31.2,31.2Z"/>
          <path class="cls-1" d="M140.08,157.02v-88.47h22.96v88.47h-22.96Z"/>
        </g>
      </g>
    </g>
  </g>
</svg>